<svg
 xmlns="http://www.w3.org/2000/svg"
 xmlns:xlink="http://www.w3.org/1999/xlink"
 width="2.021in" height="0.618in">
<path fill-rule="evenodd"  stroke="rgb(143, 143, 143)" stroke-width="1px" stroke-linecap="butt" stroke-linejoin="miter" fill="none"
 d="M133.750,43.500 L10.750,43.500 C5.227,43.500 0.750,39.023 0.750,33.500 L0.750,10.500 C0.750,4.977 5.227,0.500 10.750,0.500 L133.750,0.500 C139.273,0.500 143.750,4.977 143.750,10.500 L143.750,33.500 C143.750,39.023 139.273,43.500 133.750,43.500 ZM124.822,18.159 C123.914,17.280 122.442,17.280 121.534,18.159 L117.498,22.065 L113.462,18.159 C112.554,17.280 111.081,17.280 110.173,18.159 C109.265,19.038 109.265,20.463 110.173,21.342 L115.853,26.840 C116.762,27.718 118.234,27.718 119.142,26.840 L124.822,21.342 C125.730,20.463 125.730,19.038 124.822,18.159 Z"/>
</svg>
