<svg
 xmlns="http://www.w3.org/2000/svg"
 xmlns:xlink="http://www.w3.org/1999/xlink"
 width="0.847in" height="0.847in"
 viewBox="0 0 60 60">
<path fill-rule="evenodd" stroke-width="3px" stroke-linecap="butt" stroke-linejoin="miter" fill="none"
 d="M49.000,59.000 L11.000,59.000 C5.477,59.000 1.000,54.523 1.000,49.000 L1.000,11.000 C1.000,5.477 5.477,1.000 11.000,1.000 L49.000,1.000 C54.523,1.000 59.000,5.477 59.000,11.000 L59.000,49.000 C59.000,54.523 54.523,59.000 49.000,59.000 ZM36.030,27.530 L27.790,19.010 C26.472,17.648 24.337,17.648 23.019,19.010 C21.702,20.372 21.702,22.580 23.019,23.943 L28.874,29.996 L23.019,36.050 C21.702,37.413 21.702,39.621 23.019,40.983 C24.337,42.345 26.472,42.345 27.790,40.983 L36.030,32.463 C37.347,31.101 37.347,28.892 36.030,27.530 Z"/>
</svg>
