<svg xmlns="http://www.w3.org/2000/svg" xmlns:xlink="http://www.w3.org/1999/xlink" xmlns:sketch="http://www.bohemiancoding.com/sketch/ns" class="visually-hidden"><symbol id="Basket_icon">
<path fill-rule="evenodd" d="M25.445,4.957 C25.835,5.212 26.072,5.668 26.006,6.159 L24.502,15.477 C24.410,16.158 23.781,16.637 23.097,16.545 L22.997,16.531 L7.747,16.531 L8.131,19.062 L21.656,19.062 C22.312,19.062 22.844,19.594 22.844,20.250 L22.844,20.375 C22.844,21.031 22.312,21.562 21.656,21.562 L7.184,21.562 L7.135,21.570 C6.454,21.680 5.813,21.218 5.703,20.539 L3.144,3.682 C3.086,3.324 3.194,2.983 3.402,2.719 L1.315,2.719 C0.589,2.719 -0.000,2.130 -0.000,1.404 L-0.000,1.315 C-0.000,0.588 0.589,-0.000 1.315,-0.000 L4.435,-0.000 C5.161,-0.000 5.750,0.588 5.750,1.315 L5.750,1.404 C5.750,1.835 5.538,2.210 5.217,2.447 C5.285,2.495 5.334,2.564 5.392,2.625 L24.715,2.625 C25.408,2.625 25.969,3.186 25.969,3.878 L25.969,3.965 C25.969,4.379 25.755,4.729 25.445,4.957 ZM21.994,13.781 L22.559,10.281 L17.500,10.281 L17.500,13.781 L21.994,13.781 ZM16.500,13.781 L16.500,10.281 L12.219,10.281 L12.219,13.781 L16.500,13.781 ZM7.329,13.781 L11.219,13.781 L11.219,10.281 L6.798,10.281 L7.329,13.781 ZM6.029,5.219 L6.644,9.268 C6.674,9.262 6.701,9.250 6.732,9.250 L11.219,9.250 L11.219,5.219 L6.029,5.219 ZM12.219,5.219 L12.219,9.250 L16.500,9.250 L16.500,5.219 L12.219,5.219 ZM17.500,5.219 L17.500,9.250 L22.725,9.250 L23.283,5.793 C23.313,5.571 23.414,5.385 23.540,5.219 L17.500,5.219 ZM9.062,23.187 C10.132,23.187 11.000,23.817 11.000,24.594 C11.000,25.370 10.132,26.000 9.062,26.000 C7.992,26.000 7.125,25.370 7.125,24.594 C7.125,23.817 7.992,23.187 9.062,23.187 ZM21.031,23.187 C22.101,23.187 22.969,23.817 22.969,24.594 C22.969,25.370 22.101,26.000 21.031,26.000 C19.961,26.000 19.094,25.370 19.094,24.594 C19.094,23.817 19.961,23.187 21.031,23.187 Z"/>
</symbol><symbol id="buttonLeft" viewBox="0 0 60 60">
<path fill-rule="evenodd" stroke-width="2px" stroke-linecap="butt" stroke-linejoin="miter" fill="none" d="M49.000,59.000 L11.000,59.000 C5.477,59.000 1.000,54.523 1.000,49.000 L1.000,11.000 C1.000,5.477 5.477,1.000 11.000,1.000 L49.000,1.000 C54.523,1.000 59.000,5.477 59.000,11.000 L59.000,49.000 C59.000,54.523 54.523,59.000 49.000,59.000 ZM36.981,23.943 C38.298,22.580 38.298,20.372 36.981,19.010 C35.663,17.648 33.528,17.648 32.210,19.010 L23.970,27.530 C22.653,28.892 22.653,31.101 23.970,32.463 L32.210,40.983 C33.528,42.345 35.663,42.345 36.981,40.983 C38.298,39.621 38.298,37.413 36.981,36.050 L31.126,29.996 L36.981,23.943 Z"/>
</symbol><symbol id="BUTTON_bg copy 2">
<path fill-rule="evenodd" stroke="rgb(143, 143, 143)" stroke-width="1px" stroke-linecap="butt" stroke-linejoin="miter" fill="none" d="M133.750,43.500 L10.750,43.500 C5.227,43.500 0.750,39.023 0.750,33.500 L0.750,10.500 C0.750,4.977 5.227,0.500 10.750,0.500 L133.750,0.500 C139.273,0.500 143.750,4.977 143.750,10.500 L143.750,33.500 C143.750,39.023 139.273,43.500 133.750,43.500 ZM124.822,18.159 C123.914,17.280 122.442,17.280 121.534,18.159 L117.498,22.065 L113.462,18.159 C112.554,17.280 111.081,17.280 110.173,18.159 C109.265,19.038 109.265,20.463 110.173,21.342 L115.853,26.840 C116.762,27.718 118.234,27.718 119.142,26.840 L124.822,21.342 C125.730,20.463 125.730,19.038 124.822,18.159 Z"/>
</symbol><symbol id="fightButtonLink" viewBox="0 0 60 60">
<path fill-rule="evenodd" stroke-width="3px" stroke-linecap="butt" stroke-linejoin="miter" fill="none" d="M49.000,59.000 L11.000,59.000 C5.477,59.000 1.000,54.523 1.000,49.000 L1.000,11.000 C1.000,5.477 5.477,1.000 11.000,1.000 L49.000,1.000 C54.523,1.000 59.000,5.477 59.000,11.000 L59.000,49.000 C59.000,54.523 54.523,59.000 49.000,59.000 ZM36.030,27.530 L27.790,19.010 C26.472,17.648 24.337,17.648 23.019,19.010 C21.702,20.372 21.702,22.580 23.019,23.943 L28.874,29.996 L23.019,36.050 C21.702,37.413 21.702,39.621 23.019,40.983 C24.337,42.345 26.472,42.345 27.790,40.983 L36.030,32.463 C37.347,31.101 37.347,28.892 36.030,27.530 Z"/>
</symbol><symbol id="iconfinder_check-box-outline-blank_326558" viewBox="0 0 18 18"><title/><desc/><g fill="none" fill-rule="evenodd" id="Page-1" stroke="none" stroke-width="1"><g fill="#000000" id="Core" transform="translate(-3.000000, -87.000000)"><g id="check-box-outline-blank" transform="translate(3.000000, 87.000000)"><path d="M16,2 L16,16 L2,16 L2,2 L16,2 L16,2 Z M16,0 L2,0 C0.9,0 0,0.9 0,2 L0,16 C0,17.1 0.9,18 2,18 L16,18 C17.1,18 18,17.1 18,16 L18,2 C18,0.9 17.1,0 16,0 L16,0 L16,0 Z" id="Shape"/></g></g></g></symbol><symbol id="iconfinder_Check_1063906" viewBox="0 0 32 32"><path clip-rule="evenodd" d="M27.704,8.397c-0.394-0.391-1.034-0.391-1.428,0  L11.988,22.59l-6.282-6.193c-0.394-0.391-1.034-0.391-1.428,0c-0.394,0.391-0.394,1.024,0,1.414l6.999,6.899  c0.39,0.386,1.039,0.386,1.429,0L27.704,9.811C28.099,9.421,28.099,8.787,27.704,8.397C27.31,8.006,28.099,8.787,27.704,8.397z" fill="#121313" fill-rule="evenodd" id="Check"/><g/><g/><g/><g/><g/><g/></symbol><symbol id="iconfinder_ic_close_48px_352270" viewBox="0 0 48 48"><path d="M38 12.83l-2.83-2.83-11.17 11.17-11.17-11.17-2.83 2.83 11.17 11.17-11.17 11.17 2.83 2.83 11.17-11.17 11.17 11.17 2.83-2.83-11.17-11.17z"/><path d="M0 0h48v48h-48z" fill="none"/></symbol><symbol id="iconfinder_menu-alt_134216" viewBox="0 0 32 32"><path d="M4,10h24c1.104,0,2-0.896,2-2s-0.896-2-2-2H4C2.896,6,2,6.896,2,8S2.896,10,4,10z M28,14H4c-1.104,0-2,0.896-2,2  s0.896,2,2,2h24c1.104,0,2-0.896,2-2S29.104,14,28,14z M28,22H4c-1.104,0-2,0.896-2,2s0.896,2,2,2h24c1.104,0,2-0.896,2-2  S29.104,22,28,22z"/></symbol><symbol id="logo">
<path fill-rule="evenodd" fill="rgb(255, 255, 255)" d="M150.000,32.000 L10.000,32.000 C4.477,32.000 -0.000,27.523 -0.000,22.000 L-0.000,10.000 C-0.000,4.477 4.477,-0.000 10.000,-0.000 L150.000,-0.000 C155.523,-0.000 160.000,4.477 160.000,10.000 L160.000,22.000 C160.000,27.523 155.523,32.000 150.000,32.000 ZM15.016,8.800 L8.296,8.800 L8.296,9.771 L11.070,9.771 L11.070,24.370 L12.197,24.370 L12.197,9.771 L15.016,9.771 L15.016,8.800 ZM27.330,8.800 L26.225,8.800 L26.225,15.725 L22.120,15.725 L22.120,8.800 L21.038,8.800 L21.038,24.370 L22.120,24.370 L22.120,16.673 L26.225,16.673 L26.225,24.370 L27.330,24.370 L27.330,8.800 ZM40.117,8.800 L34.479,8.800 L34.479,24.370 L40.094,24.370 L40.094,23.400 L35.562,23.400 L35.562,16.717 L39.305,16.717 L39.305,15.769 L35.562,15.769 L35.562,9.771 L40.117,9.771 L40.117,8.800 ZM56.896,18.813 C56.896,17.997 56.873,17.115 56.152,16.519 C55.565,16.034 54.686,15.946 54.460,15.924 C54.799,15.857 55.859,15.725 56.219,14.622 C56.355,14.225 56.332,13.674 56.332,13.564 L56.332,11.248 C56.332,10.631 56.242,9.969 55.791,9.462 C55.114,8.712 53.987,8.800 53.739,8.800 L50.717,8.800 L50.717,24.370 L53.897,24.370 C54.212,24.370 55.272,24.414 56.107,23.708 C56.806,23.091 56.896,22.319 56.896,21.481 L56.896,18.813 ZM64.812,8.800 L63.662,8.800 L63.662,24.370 L64.812,24.370 L64.812,8.800 ZM78.253,8.800 L77.013,8.800 L73.044,16.431 L73.044,8.800 L71.939,8.800 L71.939,24.370 L73.021,24.370 L73.021,18.460 L74.194,16.298 L77.103,24.370 L78.298,24.370 L74.870,14.997 L78.253,8.800 ZM90.093,8.800 L84.455,8.800 L84.455,24.370 L90.070,24.370 L90.070,23.400 L85.538,23.400 L85.538,16.717 L89.281,16.717 L89.281,15.769 L85.538,15.769 L85.538,9.771 L90.093,9.771 L90.093,8.800 ZM107.098,9.771 C107.549,9.506 108.067,9.506 108.225,9.506 C109.601,9.506 109.939,10.344 110.029,10.873 C110.097,11.182 110.097,11.358 110.097,11.910 L110.097,13.299 L111.179,13.299 L111.179,12.175 C111.179,11.050 111.179,9.727 110.074,9.021 C109.353,8.580 108.451,8.580 108.203,8.580 C105.970,8.580 105.451,9.969 105.294,10.851 C105.203,11.292 105.203,11.932 105.203,12.020 C105.203,13.520 105.722,14.402 106.105,14.909 C106.444,15.372 107.007,15.990 107.932,16.872 C108.090,17.004 109.150,17.997 109.736,18.879 C110.029,19.342 110.300,19.893 110.300,21.106 C110.300,22.385 109.984,23.047 109.420,23.378 C108.947,23.664 108.451,23.664 108.270,23.664 C106.218,23.664 105.970,22.253 105.925,21.503 C105.902,21.172 105.925,20.864 105.925,20.533 L105.925,19.276 L104.820,19.276 L104.820,21.481 C104.820,21.944 104.843,22.297 105.000,22.738 C105.181,23.201 105.429,23.554 105.790,23.863 C106.015,24.061 106.196,24.172 106.308,24.238 C106.805,24.502 107.526,24.613 108.135,24.613 C109.668,24.613 110.458,24.017 110.841,23.466 C111.157,23.003 111.405,22.231 111.405,20.930 C111.405,19.695 111.179,18.835 110.390,17.864 C109.894,17.247 109.330,16.717 108.766,16.166 C108.383,15.769 108.022,15.394 107.684,14.997 C106.714,13.917 106.308,13.321 106.308,11.844 C106.308,10.697 106.602,10.079 107.098,9.771 ZM124.463,8.800 L123.358,8.800 L123.358,15.725 L119.254,15.725 L119.254,8.800 L118.171,8.800 L118.171,24.370 L119.254,24.370 L119.254,16.673 L123.358,16.673 L123.358,24.370 L124.463,24.370 L124.463,8.800 ZM137.949,12.594 C137.949,11.381 137.949,10.035 136.822,9.197 C136.235,8.778 135.514,8.624 134.792,8.624 C133.439,8.602 132.199,9.197 131.748,10.498 C131.500,11.204 131.500,12.086 131.500,12.263 L131.500,21.040 C131.500,21.966 131.567,22.848 132.199,23.620 C132.988,24.547 134.364,24.569 134.679,24.569 C136.303,24.569 137.137,23.797 137.476,23.223 C137.882,22.584 137.949,21.922 137.949,21.194 L137.949,12.594 ZM151.233,12.263 C151.233,11.116 151.233,10.102 150.376,9.418 C149.564,8.756 148.481,8.800 147.512,8.800 L145.031,8.800 L145.031,24.370 L146.136,24.370 L146.136,17.269 L147.760,17.269 C148.459,17.269 149.789,17.225 150.601,16.276 C151.210,15.571 151.233,14.865 151.233,14.027 L151.233,12.263 ZM147.918,16.365 L146.114,16.365 L146.114,9.704 L147.805,9.704 C148.729,9.704 149.090,9.771 149.496,10.079 C150.128,10.543 150.150,11.292 150.150,12.682 L150.150,14.027 C150.150,14.159 150.240,15.218 149.632,15.813 C149.158,16.298 148.526,16.365 147.918,16.365 ZM134.747,23.598 C133.484,23.598 132.920,22.804 132.762,22.385 C132.627,21.988 132.582,21.503 132.582,20.621 L132.582,12.042 C132.582,11.777 132.537,10.543 133.507,9.925 C133.687,9.815 134.093,9.594 134.724,9.594 C135.243,9.594 135.626,9.749 135.784,9.837 C136.235,10.057 136.416,10.388 136.506,10.565 C136.822,11.160 136.889,11.888 136.889,13.189 L136.889,20.775 C136.889,21.679 136.844,22.628 135.987,23.223 C135.626,23.488 135.198,23.598 134.747,23.598 ZM53.716,23.422 L51.844,23.422 L51.844,16.453 L52.972,16.453 C54.032,16.453 55.227,16.585 55.656,17.732 C55.768,18.063 55.791,18.416 55.791,18.790 L55.791,20.996 C55.791,22.143 55.701,22.672 55.182,23.069 C54.866,23.289 54.505,23.422 53.716,23.422 ZM52.904,15.505 L51.822,15.505 L51.822,9.727 L53.220,9.727 C53.919,9.727 54.844,9.749 55.137,10.543 C55.204,10.719 55.250,11.006 55.250,11.447 L55.250,13.321 C55.250,13.696 55.340,14.975 53.987,15.372 C53.671,15.460 53.513,15.505 52.904,15.505 Z"/>
</symbol><symbol id="THE BIKE SHOP">
<path fill-rule="evenodd" fill="rgb(0, 0, 0)" d="M105.000,24.000 L10.000,24.000 C4.477,24.000 -0.000,19.523 -0.000,14.000 L-0.000,10.969 C-0.000,5.446 4.477,0.969 10.000,0.969 L105.000,0.969 C110.523,0.969 115.000,5.446 115.000,10.969 L115.000,14.000 C115.000,19.523 110.523,24.000 105.000,24.000 ZM10.793,7.296 L5.963,7.296 L5.963,7.995 L7.956,7.995 L7.956,18.506 L8.767,18.506 L8.767,7.995 L10.793,7.995 L10.793,7.296 ZM19.643,7.296 L18.849,7.296 L18.849,12.282 L15.899,12.282 L15.899,7.296 L15.121,7.296 L15.121,18.506 L15.899,18.506 L15.899,12.965 L18.849,12.965 L18.849,18.506 L19.643,18.506 L19.643,7.296 ZM28.834,7.296 L24.782,7.296 L24.782,18.506 L28.818,18.506 L28.818,17.808 L25.560,17.808 L25.560,12.996 L28.251,12.996 L28.251,12.314 L25.560,12.314 L25.560,7.995 L28.834,7.995 L28.834,7.296 ZM40.894,14.505 C40.894,13.918 40.878,13.282 40.359,12.854 C39.937,12.504 39.305,12.441 39.143,12.425 C39.386,12.377 40.148,12.282 40.408,11.488 C40.505,11.202 40.489,10.805 40.489,10.726 L40.489,9.059 C40.489,8.614 40.424,8.138 40.100,7.772 C39.613,7.233 38.803,7.296 38.625,7.296 L36.453,7.296 L36.453,18.506 L38.738,18.506 C38.965,18.506 39.727,18.538 40.327,18.030 C40.829,17.585 40.894,17.030 40.894,16.426 L40.894,14.505 ZM46.584,7.296 L45.757,7.296 L45.757,18.506 L46.584,18.506 L46.584,7.296 ZM56.244,7.296 L55.353,7.296 L52.500,12.790 L52.500,7.296 L51.706,7.296 L51.706,18.506 L52.484,18.506 L52.484,14.251 L53.327,12.695 L55.418,18.506 L56.277,18.506 L53.813,11.758 L56.244,7.296 ZM64.754,7.296 L60.702,7.296 L60.702,18.506 L64.738,18.506 L64.738,17.808 L61.480,17.808 L61.480,12.996 L64.171,12.996 L64.171,12.314 L61.480,12.314 L61.480,7.995 L64.754,7.995 L64.754,7.296 ZM76.976,7.995 C77.301,7.804 77.673,7.804 77.787,7.804 C78.776,7.804 79.019,8.408 79.083,8.789 C79.132,9.011 79.132,9.138 79.132,9.535 L79.132,10.535 L79.910,10.535 L79.910,9.726 C79.910,8.916 79.910,7.963 79.116,7.455 C78.597,7.137 77.949,7.137 77.771,7.137 C76.166,7.137 75.793,8.138 75.680,8.773 C75.615,9.090 75.615,9.551 75.615,9.614 C75.615,10.694 75.988,11.329 76.263,11.694 C76.506,12.028 76.912,12.473 77.576,13.108 C77.690,13.203 78.451,13.918 78.873,14.553 C79.083,14.886 79.278,15.283 79.278,16.156 C79.278,17.077 79.051,17.554 78.646,17.792 C78.306,17.998 77.949,17.998 77.819,17.998 C76.344,17.998 76.166,16.982 76.134,16.442 C76.117,16.204 76.134,15.982 76.134,15.744 L76.134,14.838 L75.339,14.838 L75.339,16.426 C75.339,16.760 75.355,17.014 75.469,17.331 C75.599,17.665 75.777,17.919 76.036,18.141 C76.198,18.284 76.328,18.363 76.409,18.411 C76.766,18.602 77.284,18.681 77.722,18.681 C78.824,18.681 79.391,18.252 79.667,17.855 C79.894,17.522 80.072,16.966 80.072,16.029 C80.072,15.140 79.910,14.521 79.343,13.822 C78.986,13.378 78.581,12.996 78.176,12.600 C77.900,12.314 77.641,12.044 77.398,11.758 C76.701,10.980 76.409,10.551 76.409,9.487 C76.409,8.662 76.620,8.217 76.976,7.995 ZM89.458,7.296 L88.663,7.296 L88.663,12.282 L85.713,12.282 L85.713,7.296 L84.935,7.296 L84.935,18.506 L85.713,18.506 L85.713,12.965 L88.663,12.965 L88.663,18.506 L89.458,18.506 L89.458,7.296 ZM99.151,10.027 C99.151,9.154 99.151,8.185 98.341,7.582 C97.919,7.280 97.400,7.169 96.882,7.169 C95.909,7.153 95.018,7.582 94.694,8.519 C94.515,9.027 94.515,9.662 94.515,9.789 L94.515,16.109 C94.515,16.775 94.564,17.411 95.018,17.966 C95.585,18.633 96.574,18.649 96.801,18.649 C97.968,18.649 98.567,18.093 98.810,17.681 C99.102,17.220 99.151,16.744 99.151,16.220 L99.151,10.027 ZM108.698,9.789 C108.698,8.963 108.698,8.233 108.082,7.741 C107.499,7.264 106.721,7.296 106.024,7.296 L104.241,7.296 L104.241,18.506 L105.035,18.506 L105.035,13.394 L106.202,13.394 C106.705,13.394 107.661,13.362 108.245,12.679 C108.682,12.171 108.698,11.663 108.698,11.059 L108.698,9.789 ZM106.316,12.742 L105.019,12.742 L105.019,7.947 L106.235,7.947 C106.899,7.947 107.159,7.995 107.450,8.217 C107.904,8.551 107.920,9.090 107.920,10.091 L107.920,11.059 C107.920,11.155 107.985,11.917 107.548,12.345 C107.207,12.695 106.753,12.742 106.316,12.742 ZM96.849,17.951 C95.942,17.951 95.536,17.379 95.423,17.077 C95.326,16.791 95.293,16.442 95.293,15.807 L95.293,9.630 C95.293,9.440 95.261,8.551 95.958,8.106 C96.087,8.027 96.379,7.868 96.833,7.868 C97.206,7.868 97.481,7.979 97.595,8.043 C97.919,8.201 98.049,8.439 98.114,8.566 C98.341,8.995 98.389,9.519 98.389,10.456 L98.389,15.918 C98.389,16.569 98.357,17.252 97.741,17.681 C97.481,17.871 97.174,17.951 96.849,17.951 ZM38.608,17.824 L37.263,17.824 L37.263,12.806 L38.074,12.806 C38.835,12.806 39.694,12.901 40.002,13.727 C40.083,13.965 40.100,14.219 40.100,14.489 L40.100,16.077 C40.100,16.903 40.035,17.284 39.662,17.569 C39.435,17.728 39.176,17.824 38.608,17.824 ZM38.025,12.123 L37.247,12.123 L37.247,7.963 L38.252,7.963 C38.754,7.963 39.419,7.979 39.630,8.551 C39.678,8.678 39.711,8.884 39.711,9.202 L39.711,10.551 C39.711,10.821 39.775,11.742 38.803,12.028 C38.576,12.091 38.463,12.123 38.025,12.123 Z"/>
</symbol></svg>