<svg
 xmlns="http://www.w3.org/2000/svg"
 xmlns:xlink="http://www.w3.org/1999/xlink"
 width="1.597in" height="0.333in">
<path fill-rule="evenodd"  fill="rgb(0, 0, 0)"
 d="M105.000,24.000 L10.000,24.000 C4.477,24.000 -0.000,19.523 -0.000,14.000 L-0.000,10.969 C-0.000,5.446 4.477,0.969 10.000,0.969 L105.000,0.969 C110.523,0.969 115.000,5.446 115.000,10.969 L115.000,14.000 C115.000,19.523 110.523,24.000 105.000,24.000 ZM10.793,7.296 L5.963,7.296 L5.963,7.995 L7.956,7.995 L7.956,18.506 L8.767,18.506 L8.767,7.995 L10.793,7.995 L10.793,7.296 ZM19.643,7.296 L18.849,7.296 L18.849,12.282 L15.899,12.282 L15.899,7.296 L15.121,7.296 L15.121,18.506 L15.899,18.506 L15.899,12.965 L18.849,12.965 L18.849,18.506 L19.643,18.506 L19.643,7.296 ZM28.834,7.296 L24.782,7.296 L24.782,18.506 L28.818,18.506 L28.818,17.808 L25.560,17.808 L25.560,12.996 L28.251,12.996 L28.251,12.314 L25.560,12.314 L25.560,7.995 L28.834,7.995 L28.834,7.296 ZM40.894,14.505 C40.894,13.918 40.878,13.282 40.359,12.854 C39.937,12.504 39.305,12.441 39.143,12.425 C39.386,12.377 40.148,12.282 40.408,11.488 C40.505,11.202 40.489,10.805 40.489,10.726 L40.489,9.059 C40.489,8.614 40.424,8.138 40.100,7.772 C39.613,7.233 38.803,7.296 38.625,7.296 L36.453,7.296 L36.453,18.506 L38.738,18.506 C38.965,18.506 39.727,18.538 40.327,18.030 C40.829,17.585 40.894,17.030 40.894,16.426 L40.894,14.505 ZM46.584,7.296 L45.757,7.296 L45.757,18.506 L46.584,18.506 L46.584,7.296 ZM56.244,7.296 L55.353,7.296 L52.500,12.790 L52.500,7.296 L51.706,7.296 L51.706,18.506 L52.484,18.506 L52.484,14.251 L53.327,12.695 L55.418,18.506 L56.277,18.506 L53.813,11.758 L56.244,7.296 ZM64.754,7.296 L60.702,7.296 L60.702,18.506 L64.738,18.506 L64.738,17.808 L61.480,17.808 L61.480,12.996 L64.171,12.996 L64.171,12.314 L61.480,12.314 L61.480,7.995 L64.754,7.995 L64.754,7.296 ZM76.976,7.995 C77.301,7.804 77.673,7.804 77.787,7.804 C78.776,7.804 79.019,8.408 79.083,8.789 C79.132,9.011 79.132,9.138 79.132,9.535 L79.132,10.535 L79.910,10.535 L79.910,9.726 C79.910,8.916 79.910,7.963 79.116,7.455 C78.597,7.137 77.949,7.137 77.771,7.137 C76.166,7.137 75.793,8.138 75.680,8.773 C75.615,9.090 75.615,9.551 75.615,9.614 C75.615,10.694 75.988,11.329 76.263,11.694 C76.506,12.028 76.912,12.473 77.576,13.108 C77.690,13.203 78.451,13.918 78.873,14.553 C79.083,14.886 79.278,15.283 79.278,16.156 C79.278,17.077 79.051,17.554 78.646,17.792 C78.306,17.998 77.949,17.998 77.819,17.998 C76.344,17.998 76.166,16.982 76.134,16.442 C76.117,16.204 76.134,15.982 76.134,15.744 L76.134,14.838 L75.339,14.838 L75.339,16.426 C75.339,16.760 75.355,17.014 75.469,17.331 C75.599,17.665 75.777,17.919 76.036,18.141 C76.198,18.284 76.328,18.363 76.409,18.411 C76.766,18.602 77.284,18.681 77.722,18.681 C78.824,18.681 79.391,18.252 79.667,17.855 C79.894,17.522 80.072,16.966 80.072,16.029 C80.072,15.140 79.910,14.521 79.343,13.822 C78.986,13.378 78.581,12.996 78.176,12.600 C77.900,12.314 77.641,12.044 77.398,11.758 C76.701,10.980 76.409,10.551 76.409,9.487 C76.409,8.662 76.620,8.217 76.976,7.995 ZM89.458,7.296 L88.663,7.296 L88.663,12.282 L85.713,12.282 L85.713,7.296 L84.935,7.296 L84.935,18.506 L85.713,18.506 L85.713,12.965 L88.663,12.965 L88.663,18.506 L89.458,18.506 L89.458,7.296 ZM99.151,10.027 C99.151,9.154 99.151,8.185 98.341,7.582 C97.919,7.280 97.400,7.169 96.882,7.169 C95.909,7.153 95.018,7.582 94.694,8.519 C94.515,9.027 94.515,9.662 94.515,9.789 L94.515,16.109 C94.515,16.775 94.564,17.411 95.018,17.966 C95.585,18.633 96.574,18.649 96.801,18.649 C97.968,18.649 98.567,18.093 98.810,17.681 C99.102,17.220 99.151,16.744 99.151,16.220 L99.151,10.027 ZM108.698,9.789 C108.698,8.963 108.698,8.233 108.082,7.741 C107.499,7.264 106.721,7.296 106.024,7.296 L104.241,7.296 L104.241,18.506 L105.035,18.506 L105.035,13.394 L106.202,13.394 C106.705,13.394 107.661,13.362 108.245,12.679 C108.682,12.171 108.698,11.663 108.698,11.059 L108.698,9.789 ZM106.316,12.742 L105.019,12.742 L105.019,7.947 L106.235,7.947 C106.899,7.947 107.159,7.995 107.450,8.217 C107.904,8.551 107.920,9.090 107.920,10.091 L107.920,11.059 C107.920,11.155 107.985,11.917 107.548,12.345 C107.207,12.695 106.753,12.742 106.316,12.742 ZM96.849,17.951 C95.942,17.951 95.536,17.379 95.423,17.077 C95.326,16.791 95.293,16.442 95.293,15.807 L95.293,9.630 C95.293,9.440 95.261,8.551 95.958,8.106 C96.087,8.027 96.379,7.868 96.833,7.868 C97.206,7.868 97.481,7.979 97.595,8.043 C97.919,8.201 98.049,8.439 98.114,8.566 C98.341,8.995 98.389,9.519 98.389,10.456 L98.389,15.918 C98.389,16.569 98.357,17.252 97.741,17.681 C97.481,17.871 97.174,17.951 96.849,17.951 ZM38.608,17.824 L37.263,17.824 L37.263,12.806 L38.074,12.806 C38.835,12.806 39.694,12.901 40.002,13.727 C40.083,13.965 40.100,14.219 40.100,14.489 L40.100,16.077 C40.100,16.903 40.035,17.284 39.662,17.569 C39.435,17.728 39.176,17.824 38.608,17.824 ZM38.025,12.123 L37.247,12.123 L37.247,7.963 L38.252,7.963 C38.754,7.963 39.419,7.979 39.630,8.551 C39.678,8.678 39.711,8.884 39.711,9.202 L39.711,10.551 C39.711,10.821 39.775,11.742 38.803,12.028 C38.576,12.091 38.463,12.123 38.025,12.123 Z"/>
</svg>
