<svg
 xmlns="http://www.w3.org/2000/svg"
 xmlns:xlink="http://www.w3.org/1999/xlink"
 width="0.694in" height="1.264in">
<path fill-rule="evenodd"  fill="rgb(130, 107, 96)"
 d="M49.245,4.990 L7.747,45.956 L49.245,86.922 C50.180,87.846 50.180,89.348 49.245,90.272 C48.774,90.732 48.160,90.964 47.545,90.964 L47.550,90.969 C47.374,90.969 47.206,90.908 47.033,90.870 C46.870,90.904 46.711,90.964 46.545,90.964 L46.550,90.969 C45.936,90.969 45.321,90.741 44.851,90.277 L1.654,47.633 C0.718,46.709 0.718,45.207 1.654,44.284 L44.851,1.640 C45.449,1.050 46.278,0.880 47.048,1.043 C47.818,0.880 48.647,1.050 49.245,1.640 C50.180,2.564 50.180,4.066 49.245,4.990 Z"/>
</svg>
