<svg
 xmlns="http://www.w3.org/2000/svg"
 xmlns:xlink="http://www.w3.org/1999/xlink"
 width="2.222in" height="0.444in">
<path fill-rule="evenodd"  fill="rgb(255, 255, 255)"
 d="M150.000,32.000 L10.000,32.000 C4.477,32.000 -0.000,27.523 -0.000,22.000 L-0.000,10.000 C-0.000,4.477 4.477,-0.000 10.000,-0.000 L150.000,-0.000 C155.523,-0.000 160.000,4.477 160.000,10.000 L160.000,22.000 C160.000,27.523 155.523,32.000 150.000,32.000 ZM15.016,8.800 L8.296,8.800 L8.296,9.771 L11.070,9.771 L11.070,24.370 L12.197,24.370 L12.197,9.771 L15.016,9.771 L15.016,8.800 ZM27.330,8.800 L26.225,8.800 L26.225,15.725 L22.120,15.725 L22.120,8.800 L21.038,8.800 L21.038,24.370 L22.120,24.370 L22.120,16.673 L26.225,16.673 L26.225,24.370 L27.330,24.370 L27.330,8.800 ZM40.117,8.800 L34.479,8.800 L34.479,24.370 L40.094,24.370 L40.094,23.400 L35.562,23.400 L35.562,16.717 L39.305,16.717 L39.305,15.769 L35.562,15.769 L35.562,9.771 L40.117,9.771 L40.117,8.800 ZM56.896,18.813 C56.896,17.997 56.873,17.115 56.152,16.519 C55.565,16.034 54.686,15.946 54.460,15.924 C54.799,15.857 55.859,15.725 56.219,14.622 C56.355,14.225 56.332,13.674 56.332,13.564 L56.332,11.248 C56.332,10.631 56.242,9.969 55.791,9.462 C55.114,8.712 53.987,8.800 53.739,8.800 L50.717,8.800 L50.717,24.370 L53.897,24.370 C54.212,24.370 55.272,24.414 56.107,23.708 C56.806,23.091 56.896,22.319 56.896,21.481 L56.896,18.813 ZM64.812,8.800 L63.662,8.800 L63.662,24.370 L64.812,24.370 L64.812,8.800 ZM78.253,8.800 L77.013,8.800 L73.044,16.431 L73.044,8.800 L71.939,8.800 L71.939,24.370 L73.021,24.370 L73.021,18.460 L74.194,16.298 L77.103,24.370 L78.298,24.370 L74.870,14.997 L78.253,8.800 ZM90.093,8.800 L84.455,8.800 L84.455,24.370 L90.070,24.370 L90.070,23.400 L85.538,23.400 L85.538,16.717 L89.281,16.717 L89.281,15.769 L85.538,15.769 L85.538,9.771 L90.093,9.771 L90.093,8.800 ZM107.098,9.771 C107.549,9.506 108.067,9.506 108.225,9.506 C109.601,9.506 109.939,10.344 110.029,10.873 C110.097,11.182 110.097,11.358 110.097,11.910 L110.097,13.299 L111.179,13.299 L111.179,12.175 C111.179,11.050 111.179,9.727 110.074,9.021 C109.353,8.580 108.451,8.580 108.203,8.580 C105.970,8.580 105.451,9.969 105.294,10.851 C105.203,11.292 105.203,11.932 105.203,12.020 C105.203,13.520 105.722,14.402 106.105,14.909 C106.444,15.372 107.007,15.990 107.932,16.872 C108.090,17.004 109.150,17.997 109.736,18.879 C110.029,19.342 110.300,19.893 110.300,21.106 C110.300,22.385 109.984,23.047 109.420,23.378 C108.947,23.664 108.451,23.664 108.270,23.664 C106.218,23.664 105.970,22.253 105.925,21.503 C105.902,21.172 105.925,20.864 105.925,20.533 L105.925,19.276 L104.820,19.276 L104.820,21.481 C104.820,21.944 104.843,22.297 105.000,22.738 C105.181,23.201 105.429,23.554 105.790,23.863 C106.015,24.061 106.196,24.172 106.308,24.238 C106.805,24.502 107.526,24.613 108.135,24.613 C109.668,24.613 110.458,24.017 110.841,23.466 C111.157,23.003 111.405,22.231 111.405,20.930 C111.405,19.695 111.179,18.835 110.390,17.864 C109.894,17.247 109.330,16.717 108.766,16.166 C108.383,15.769 108.022,15.394 107.684,14.997 C106.714,13.917 106.308,13.321 106.308,11.844 C106.308,10.697 106.602,10.079 107.098,9.771 ZM124.463,8.800 L123.358,8.800 L123.358,15.725 L119.254,15.725 L119.254,8.800 L118.171,8.800 L118.171,24.370 L119.254,24.370 L119.254,16.673 L123.358,16.673 L123.358,24.370 L124.463,24.370 L124.463,8.800 ZM137.949,12.594 C137.949,11.381 137.949,10.035 136.822,9.197 C136.235,8.778 135.514,8.624 134.792,8.624 C133.439,8.602 132.199,9.197 131.748,10.498 C131.500,11.204 131.500,12.086 131.500,12.263 L131.500,21.040 C131.500,21.966 131.567,22.848 132.199,23.620 C132.988,24.547 134.364,24.569 134.679,24.569 C136.303,24.569 137.137,23.797 137.476,23.223 C137.882,22.584 137.949,21.922 137.949,21.194 L137.949,12.594 ZM151.233,12.263 C151.233,11.116 151.233,10.102 150.376,9.418 C149.564,8.756 148.481,8.800 147.512,8.800 L145.031,8.800 L145.031,24.370 L146.136,24.370 L146.136,17.269 L147.760,17.269 C148.459,17.269 149.789,17.225 150.601,16.276 C151.210,15.571 151.233,14.865 151.233,14.027 L151.233,12.263 ZM147.918,16.365 L146.114,16.365 L146.114,9.704 L147.805,9.704 C148.729,9.704 149.090,9.771 149.496,10.079 C150.128,10.543 150.150,11.292 150.150,12.682 L150.150,14.027 C150.150,14.159 150.240,15.218 149.632,15.813 C149.158,16.298 148.526,16.365 147.918,16.365 ZM134.747,23.598 C133.484,23.598 132.920,22.804 132.762,22.385 C132.627,21.988 132.582,21.503 132.582,20.621 L132.582,12.042 C132.582,11.777 132.537,10.543 133.507,9.925 C133.687,9.815 134.093,9.594 134.724,9.594 C135.243,9.594 135.626,9.749 135.784,9.837 C136.235,10.057 136.416,10.388 136.506,10.565 C136.822,11.160 136.889,11.888 136.889,13.189 L136.889,20.775 C136.889,21.679 136.844,22.628 135.987,23.223 C135.626,23.488 135.198,23.598 134.747,23.598 ZM53.716,23.422 L51.844,23.422 L51.844,16.453 L52.972,16.453 C54.032,16.453 55.227,16.585 55.656,17.732 C55.768,18.063 55.791,18.416 55.791,18.790 L55.791,20.996 C55.791,22.143 55.701,22.672 55.182,23.069 C54.866,23.289 54.505,23.422 53.716,23.422 ZM52.904,15.505 L51.822,15.505 L51.822,9.727 L53.220,9.727 C53.919,9.727 54.844,9.749 55.137,10.543 C55.204,10.719 55.250,11.006 55.250,11.447 L55.250,13.321 C55.250,13.696 55.340,14.975 53.987,15.372 C53.671,15.460 53.513,15.505 52.904,15.505 Z"/>
</svg>
