<svg
 xmlns="http://www.w3.org/2000/svg"
 xmlns:xlink="http://www.w3.org/1999/xlink"
 width="0.694in" height="1.264in">
<path fill-rule="evenodd"  fill="rgb(130, 107, 96)"
 d="M48.346,47.633 L5.149,90.277 C4.678,90.741 4.064,90.969 3.450,90.969 L3.455,90.964 C3.289,90.964 3.130,90.904 2.967,90.870 C2.794,90.908 2.625,90.969 2.450,90.969 L2.455,90.964 C1.840,90.964 1.226,90.732 0.755,90.272 C-0.181,89.348 -0.181,87.846 0.755,86.922 L42.253,45.956 L0.755,4.990 C-0.181,4.066 -0.181,2.564 0.755,1.640 C1.353,1.050 2.182,0.880 2.952,1.043 C3.722,0.880 4.551,1.050 5.149,1.640 L48.346,44.284 C49.282,45.207 49.282,46.709 48.346,47.633 Z"/>
</svg>
